<svg width="37" height="37" viewBox="0 0 37 37" fill="none" xmlns="http://www.w3.org/2000/svg">
<path opacity="0.35" fill-rule="evenodd" clip-rule="evenodd" d="M18.5 36C28.165 36 36 28.165 36 18.5C36 8.83502 28.165 1 18.5 1C8.83502 1 1 8.83502 1 18.5C1 28.165 8.83502 36 18.5 36Z" stroke="#222325" stroke-width="1.5"/>
<g clip-path="url(#clip0_2903_6904)">
<path d="M23.166 10.6665H14.8327C12.5315 10.6665 10.666 12.532 10.666 14.8332V23.1665C10.666 25.4677 12.5315 27.3332 14.8327 27.3332H23.166C25.4672 27.3332 27.3327 25.4677 27.3327 23.1665V14.8332C27.3327 12.532 25.4672 10.6665 23.166 10.6665Z" stroke="#222325" stroke-width="2" stroke-linecap="round" stroke-linejoin="round"/>
<path d="M22.3337 18.4748C22.4366 19.1683 22.3181 19.8766 21.9952 20.4989C21.6723 21.1213 21.1614 21.6259 20.5351 21.9412C19.9088 22.2564 19.1991 22.3661 18.5069 22.2547C17.8147 22.1433 17.1752 21.8165 16.6794 21.3207C16.1837 20.825 15.8569 20.1855 15.7455 19.4933C15.6341 18.8011 15.7438 18.0913 16.059 17.4651C16.3742 16.8388 16.8789 16.3279 17.5012 16.005C18.1236 15.682 18.8319 15.5636 19.5254 15.6664C20.2328 15.7713 20.8878 16.101 21.3935 16.6067C21.8992 17.1124 22.2288 17.7673 22.3337 18.4748Z" stroke="#222325" stroke-width="2" stroke-linecap="round" stroke-linejoin="round"/>
<path d="M23.584 14.4165H23.5923" stroke="#222325" stroke-width="2" stroke-linecap="round" stroke-linejoin="round"/>
</g>
<defs>
<clipPath id="clip0_2903_6904">
<rect width="20" height="20" fill="white" transform="translate(9 9)"/>
</clipPath>
</defs>
</svg>
