<svg width="20" height="18" viewBox="0 0 20 18" fill="none" xmlns="http://www.w3.org/2000/svg">
<path d="M7 5C7 6.65685 8.34315 8 10 8C11.6569 8 13 6.65685 13 5M1 13.8002V4.2002C1 3.08009 1 2.51962 1.21799 2.0918C1.40973 1.71547 1.71547 1.40973 2.0918 1.21799C2.51962 1 3.08009 1 4.2002 1H15.8002C16.9203 1 17.4796 1 17.9074 1.21799C18.2837 1.40973 18.5905 1.71547 18.7822 2.0918C19 2.5192 19 3.07899 19 4.19691V13.8036C19 14.9215 19 15.4805 18.7822 15.9079C18.5905 16.2842 18.2837 16.5905 17.9074 16.7822C17.48 17 16.921 17 15.8031 17H4.19691C3.07899 17 2.5192 17 2.0918 16.7822C1.71547 16.5905 1.40973 16.2842 1.21799 15.9079C1 15.4801 1 14.9203 1 13.8002Z" stroke="#3ECF4C" stroke-width="2" stroke-linecap="round" stroke-linejoin="round"/>
</svg>
