<svg width="37" height="37" viewBox="0 0 37 37" fill="none" xmlns="http://www.w3.org/2000/svg">
<path opacity="0.35" fill-rule="evenodd" clip-rule="evenodd" d="M18.5 36C28.165 36 36 28.165 36 18.5C36 8.83502 28.165 1 18.5 1C8.83502 1 1 8.83502 1 18.5C1 28.165 8.83502 36 18.5 36Z" stroke="#222325" stroke-width="1.5"/>
<path d="M24.0007 9.6665H21.5007C20.3956 9.6665 19.3358 10.1055 18.5544 10.8869C17.773 11.6683 17.334 12.7281 17.334 13.8332V16.3332H14.834V19.6665H17.334V26.3332H20.6673V19.6665H23.1673L24.0007 16.3332H20.6673V13.8332C20.6673 13.6122 20.7551 13.4002 20.9114 13.2439C21.0677 13.0876 21.2796 12.9998 21.5007 12.9998H24.0007V9.6665Z" fill="#222325"/>
</svg>
