<svg width="37" height="37" viewBox="0 0 37 37" fill="none" xmlns="http://www.w3.org/2000/svg">
<path opacity="0.35" fill-rule="evenodd" clip-rule="evenodd" d="M18.5 36C28.165 36 36 28.165 36 18.5C36 8.83502 28.165 1 18.5 1C8.83502 1 1 8.83502 1 18.5C1 28.165 8.83502 36 18.5 36Z" stroke="#222325" stroke-width="1.5"/>
<path d="M22.334 14.6665C23.6601 14.6665 24.9318 15.1933 25.8695 16.131C26.8072 17.0687 27.334 18.3404 27.334 19.6665V25.4998H24.0007V19.6665C24.0007 19.2245 23.8251 18.8006 23.5125 18.488C23.1999 18.1754 22.776 17.9998 22.334 17.9998C21.892 17.9998 21.468 18.1754 21.1555 18.488C20.8429 18.8006 20.6673 19.2245 20.6673 19.6665V25.4998H17.334V19.6665C17.334 18.3404 17.8608 17.0687 18.7985 16.131C19.7361 15.1933 21.0079 14.6665 22.334 14.6665Z" fill="#222325"/>
<path d="M13.9993 15.5H10.666V25.5H13.9993V15.5Z" fill="#222325"/>
<path d="M12.3327 12.9998C13.2532 12.9998 13.9993 12.2536 13.9993 11.3332C13.9993 10.4127 13.2532 9.6665 12.3327 9.6665C11.4122 9.6665 10.666 10.4127 10.666 11.3332C10.666 12.2536 11.4122 12.9998 12.3327 12.9998Z" fill="#222325"/>
</svg>
