<svg width="37" height="37" viewBox="0 0 37 37" fill="none" xmlns="http://www.w3.org/2000/svg">
<path opacity="0.35" fill-rule="evenodd" clip-rule="evenodd" d="M18.5 36C28.165 36 36 28.165 36 18.5C36 8.83502 28.165 1 18.5 1C8.83502 1 1 8.83502 1 18.5C1 28.165 8.83502 36 18.5 36Z" stroke="#222325" stroke-width="1.5"/>
<g clip-path="url(#clip0_2903_6910)">
<path d="M28.1654 11.5001C27.3674 12.063 26.4838 12.4935 25.5487 12.7751C25.0468 12.198 24.3798 11.789 23.6379 11.6034C22.896 11.4177 22.1149 11.4644 21.4004 11.7371C20.6859 12.0098 20.0724 12.4954 19.6429 13.1282C19.2133 13.7609 18.9884 14.5104 18.9987 15.2751V16.1084C17.5342 16.1464 16.0831 15.8216 14.7745 15.163C13.466 14.5043 12.3406 13.5323 11.4987 12.3334C11.4987 12.3334 8.16536 19.8334 15.6654 23.1667C13.9491 24.3317 11.9047 24.9159 9.83203 24.8334C17.332 29.0001 26.4987 24.8334 26.4987 15.2501C26.4979 15.018 26.4756 14.7864 26.432 14.5584C27.2825 13.7197 27.8827 12.6607 28.1654 11.5001V11.5001Z" stroke="#222325" stroke-width="2" stroke-linecap="round" stroke-linejoin="round"/>
</g>
<defs>
<clipPath id="clip0_2903_6910">
<rect width="20" height="20" fill="white" transform="translate(9 9)"/>
</clipPath>
</defs>
</svg>
